<?xml version="1.0" encoding="utf-8"?>
<!-- Generator: Adobe Illustrator 19.0.0, SVG Export Plug-In . SVG Version: 6.00 Build 0)  -->
<svg version="1.1" id="圖層_1" xmlns="http://www.w3.org/2000/svg" xmlns:xlink="http://www.w3.org/1999/xlink" x="0px" y="0px"
	 viewBox="45 -33.8 150 150" style="enable-background:new 45 -33.8 150 150;" xml:space="preserve">
<style type="text/css">
	.st0{enable-background:new    ;}
</style>
<g class="st0">
	<path d="M75.5,88.1C121.4,83.7,156.3,78,180.3,71l1,3.1C157.4,83,120.2,90.8,69.7,97.6c-0.7,4.2-1.7,6.3-3,6.3
		c-2.1,0-4.6-4.7-7.5-14.2c2-0.1,5.6-0.5,10.8-1c23.3-39.6,39.7-77.3,49.1-113.2c10.7,3.5,16,6.3,16,8.6c0,1.5-2.7,2.6-8,3.1
		C115.9,20.2,98.7,53.8,75.5,88.1z"/>
</g>
</svg>
